<?xml version="1.0" encoding="UTF-8"?>
<svg width="35px" height="43px" viewBox="0 0 35 43" version="1.1" xmlns="http://www.w3.org/2000/svg" xmlns:xlink="http://www.w3.org/1999/xlink">
    <!-- Generator: Sketch 51.2 (57519) - http://www.bohemiancoding.com/sketch -->
    <title>icon copy 15</title>
    <desc>Created with Sketch.</desc>
    <defs></defs>
    <g id="icon-copy-15" stroke="none" stroke-width="1" fill="none" fill-rule="evenodd">
        <g id="boat-copy-5" transform="translate(1.000000, 8.000000)" fill="#000000" fill-rule="nonzero">
            <path d="M16.3703704,6.05904245 C14.4192667,6.05904245 12.8375847,4.47533781 12.8375847,2.52173913 C12.8375847,0.568140453 14.4192667,-1.01556419 16.3703704,-1.01556419 C18.321474,-1.01556419 19.9031561,0.568140453 19.9031561,2.52173913 C19.9031561,4.47533781 18.321474,6.05904245 16.3703704,6.05904245 Z M16.3703704,4.02791407 C17.2011455,4.02791407 17.8746217,3.35357658 17.8746217,2.52173913 C17.8746217,1.68990168 17.2011455,1.01556419 16.3703704,1.01556419 C15.5395953,1.01556419 14.866119,1.68990168 14.866119,2.52173913 C14.866119,3.35357658 15.5395953,4.02791407 16.3703704,4.02791407 Z" id="Oval-3"></path>
            <path d="M13.6057933,23.913335 L13.4605403,23.9114744 C9.83860438,23.6044294 6.807371,21.0931277 4.37011419,16.5167671 C4.00984204,15.8402954 4.49942007,15.0233441 5.26508441,15.0233441 L3.90870207,13.6410697 L2.48640701,15.0297434 C2.95609257,15.0826431 3.33387014,15.4577274 3.38144307,15.9388513 C3.8296342,20.4715847 5.58311619,22.3750494 10.4723405,24.6026989 C10.8893569,24.7927017 11.330733,24.9878862 11.9327684,25.2498628 C11.9291599,25.2482926 13.1466834,25.776452 13.5088943,25.9349718 C14.676598,26.4460114 15.6145296,26.873397 16.5344695,27.3218251 C17.6548736,26.8174527 19.7596213,25.8787243 19.6472264,25.9291636 C20.9532851,25.3430446 21.8684138,24.9174352 22.7014708,24.5021844 C27.5602344,22.0802543 29.3144111,20.0030021 29.3144111,16.0389083 C29.3144111,15.4780276 29.7685139,15.0233441 30.3286782,15.0233441 L30.4889885,15.0233441 L29.1625853,13.6620523 L27.7946404,15.0338767 C28.4348802,15.1260539 28.8414103,15.8069236 28.5829046,16.4290291 C26.8359326,20.6331944 23.9737077,23.1587097 20.0267454,23.9030747 C18.4237858,24.1522334 17.363193,23.0525972 16.707325,21.0849638 C16.0873817,22.8474618 15.1015234,23.8250514 13.6057933,23.913335 Z M7.02820933,17.0544724 C8.94491214,20.0629241 11.117026,21.6420891 13.5466173,21.879821 C14.7290607,21.7171336 15.4977585,18.8316545 15.5792347,13.9562402 C15.6048188,12.4253267 15.5724423,10.914795 15.4898551,8.82953593 C15.4820661,8.63287073 15.4391422,7.58374981 15.4287641,7.31381278 C15.4086231,6.78994291 15.3971325,6.41459327 15.3927333,6.10200058 C15.3873535,5.71972571 15.3927807,5.43654944 15.4129963,5.22033679 C15.4281047,5.05874579 15.4514075,4.92316702 15.4961818,4.78910382 C15.6415077,4.35396956 15.9463914,3.99328697 16.5743736,4.02966683 C17.1293285,4.06181613 17.3799254,4.37193177 17.5220472,4.7604332 C17.5669431,4.88315994 17.5937606,5.00817689 17.6142046,5.1552709 C17.6419844,5.35514603 17.6589146,5.61444945 17.6695318,5.95724313 C17.6854584,6.47146535 17.6869309,6.95442584 17.6827885,8.41923347 C17.6756461,10.9448845 17.6883351,12.3219671 17.7559795,13.9384106 C17.8648417,16.5398029 18.1037285,18.595916 18.5074314,20.0358713 C18.9015674,21.4417023 19.3330364,21.9554459 19.6832877,21.9015399 C22.4489477,21.3795813 24.554909,19.786927 26.041331,17.0544724 L25.3591738,17.0544724 C24.4559382,17.0544724 24.003234,15.9613516 24.6414216,15.3213541 L28.4531818,11.4987837 C28.8526463,11.0981864 29.5021145,11.1019466 29.8969256,11.5071425 L33.6215272,15.3297129 C34.2483399,15.9730127 33.7931282,17.0544724 32.8955356,17.0544724 L31.3077172,17.0544724 C31.002173,21.2975976 28.6894497,23.7862812 23.6055047,26.3204565 C22.7427504,26.7505105 21.8058916,27.1862262 20.4768875,27.7826424 C20.6009384,27.7269721 17.7804391,28.9849849 16.9349552,29.3691898 C16.657209,29.4954033 16.3374824,29.4897632 16.0643487,29.353832 C14.4454882,28.548169 9.08816867,26.2035651 9.63216662,26.4514238 C4.46979141,24.0993201 2.16922026,21.7928667 1.4743533,17.0544724 L-1.03472786e-13,17.0544724 C-0.909789878,17.0544724 -1.35947506,15.9477805 -0.70810258,15.3118057 L3.20701653,11.4892353 C3.60349096,11.102133 4.2367712,11.1049927 4.62974253,11.4956597 L8.47485985,15.3182301 C9.11733848,15.9569413 8.66560349,17.0544724 7.76023643,17.0544724 L7.02820933,17.0544724 Z" id="Path-11"></path>
            <path d="M12.5925926,11.1025207 C12.0324283,11.1025207 11.5783254,10.6478371 11.5783254,10.0869565 C11.5783254,9.52607591 12.0324283,9.07139234 12.5925926,9.07139234 L21.4074074,9.07139234 C21.9675717,9.07139234 22.4216746,9.52607591 22.4216746,10.0869565 C22.4216746,10.6478371 21.9675717,11.1025207 21.4074074,11.1025207 L12.5925926,11.1025207 Z" id="Path-12"></path>
        </g>
    </g>
</svg>