<?xml version="1.0" encoding="UTF-8"?>
<svg width="23px" height="43px" viewBox="0 0 23 43" version="1.1" xmlns="http://www.w3.org/2000/svg" xmlns:xlink="http://www.w3.org/1999/xlink">
    <!-- Generator: Sketch 51.2 (57519) - http://www.bohemiancoding.com/sketch -->
    <title>icon copy 13</title>
    <desc>Created with Sketch.</desc>
    <defs></defs>
    <g id="icon-copy-13" stroke="none" stroke-width="1" fill="none" fill-rule="evenodd">
        <g id="water-copy-3" transform="translate(2.000000, 8.000000)" fill="#000000" fill-rule="nonzero">
            <path d="M9.44068872,1.50951282 C8.59190477,4.26964551 7.43621442,6.51269232 5.61953538,9.29072339 C5.67701707,9.20282348 3.62675509,12.2638802 3.12743561,13.0782694 C1.29259288,16.0708945 0.651473511,18.3656789 1.1158468,21.2949381 C2.04193864,26.2216218 5.24346662,28.0086294 9.49804914,28.0301194 C13.2902235,28.0492736 16.7659768,25.9809084 17.9074457,21.2565683 C18.467492,18.801021 18.1404347,16.7225759 16.9642918,14.2716669 C16.311084,12.9104778 12.8639785,7.26634027 13.1500206,7.7575179 C11.9171214,5.64044352 10.9703515,3.72200362 10.17955,1.61665171 L10.1405005,1.48704508 C9.98997896,0.83265644 9.61192753,0.835444984 9.44068872,1.50951282 Z M7.55491084,0.979696722 C8.24095161,-1.63748207 11.3655496,-1.67487473 12.0268277,0.957284652 C12.7692693,2.92290914 13.6615493,4.72742977 14.8301517,6.73409698 C14.4907165,6.1512353 18.0149447,11.9216503 18.7198157,13.3904976 C20.0828194,16.230797 20.4824771,18.7706173 19.8088928,21.723601 C18.4175117,27.4827185 14.0976879,30.0533765 9.48839124,30.030095 C4.40796334,30.0044337 0.334219007,27.7305781 -0.80950022,21.6439105 C-1.36523965,18.1414683 -0.595173234,15.3851386 1.4706606,12.0157674 C1.9948027,11.1608926 4.07193494,8.05971837 3.9940225,8.17886059 C5.71128535,5.55285489 6.78513748,3.47072833 7.55491084,0.979696722 Z" id="Path-3"></path>
            <path d="M7.34209301,18.8633802 C7.264306,18.9785859 6.96748251,19.4093503 6.89940095,19.5103919 C6.7509149,19.7307638 6.64510239,19.8993865 6.56005653,20.053961 C6.32467176,20.4817829 6.26567412,20.7690889 6.3576668,21.141597 C6.48663191,21.827674 6.87957665,22.0470053 7.53042413,22.0502927 C8.07925173,22.0530649 8.54556073,21.7755718 8.70808274,21.1032273 C8.78790484,20.7532438 8.72643276,20.4530584 8.48918258,20.0189895 C8.39937892,19.8546862 8.28764605,19.6767102 8.12192979,19.4304184 C8.11497264,19.4200785 7.74923196,18.8839037 7.63627509,18.712516 C7.60336101,18.662576 7.57116857,18.6131564 7.53967404,18.5641852 C7.47700426,18.661488 7.41121288,18.7610109 7.34209301,18.8633802 Z M8.44704154,16.0291154 C8.62766705,16.5495253 8.87550873,17.0145344 9.25784787,17.5946516 C9.3603451,17.7501691 9.7181008,18.2746378 9.73291038,18.2966482 C9.93006388,18.589663 10.0710204,18.8141885 10.1961476,19.043119 C10.6532367,19.8794015 10.8150438,20.6695511 10.6095298,21.5702599 C10.1970956,23.2773819 8.88671617,24.0571678 7.52076623,24.0502683 C6.04407337,24.0428096 4.77891228,23.3366303 4.45069478,21.5801972 C4.23032322,20.7065976 4.39302817,19.9142592 4.85578618,19.0731767 C4.97478682,18.856888 5.10993756,18.6415119 5.28915313,18.3755334 C5.36483675,18.2632094 5.66239161,17.8313837 5.73292529,17.7269204 C6.17659515,17.0698274 6.43009225,16.5969887 6.59221952,16.0657096 C6.87215123,15.1483941 8.13272596,15.1235239 8.44704154,16.0291154 Z" id="Path-3-Copy"></path>
        </g>
    </g>
</svg>