<?xml version="1.0" encoding="UTF-8"?>
<svg width="27px" height="43px" viewBox="0 0 27 43" version="1.1" xmlns="http://www.w3.org/2000/svg" xmlns:xlink="http://www.w3.org/1999/xlink">
    <!-- Generator: Sketch 51.2 (57519) - http://www.bohemiancoding.com/sketch -->
    <title>icon copy 21</title>
    <desc>Created with Sketch.</desc>
    <defs></defs>
    <g id="icon-copy-21" stroke="none" stroke-width="1" fill="none" fill-rule="evenodd">
        <g id="Group-25-Copy" transform="translate(1.000000, 7.000000)" fill="#000000" fill-rule="nonzero">
            <path d="M22.6017943,8.64765468 L16.0950867,2 L1.98412698,2 L1.98412698,28 L22.6017943,28 L22.6017943,8.64765468 Z M1.98412698,0 L16.9247732,0 L24.5859213,7.82710243 L24.5859213,28 C24.5859213,29.1045695 23.6975974,30 22.6017943,30 L1.98412698,30 C0.888323909,30 2.08073446e-15,29.1045695 0,28 L0,2 C-1.34197173e-16,0.8954305 0.888323909,2.02906125e-16 1.98412698,0 Z" id="Rectangle-25"></path>
            <path d="M14.484127,1.2 L16.196242,0.512106813 L23.2783116,8.04434107 L22.5582601,9.73223426 L16.468254,9.73223426 C15.3724509,9.73223426 14.484127,8.83680376 14.484127,7.73223426 L14.484127,1.2 Z M16.468254,7.73223426 L20.2511925,7.73223426 L16.468254,3.70883708 L16.468254,7.73223426 Z" id="Path-24"></path>
            <path d="M6.4699793,15.3478261 C5.92207776,15.3478261 5.4779158,14.9001108 5.4779158,14.3478261 C5.4779158,13.7955413 5.92207776,13.3478261 6.4699793,13.3478261 L18.115942,13.3478261 C18.6638436,13.3478261 19.1080055,13.7955413 19.1080055,14.3478261 C19.1080055,14.9001108 18.6638436,15.3478261 18.115942,15.3478261 L6.4699793,15.3478261 Z" id="Line-14"></path>
            <path d="M6.4699793,20.5652174 C5.92207776,20.5652174 5.4779158,20.1175021 5.4779158,19.5652174 C5.4779158,19.0129326 5.92207776,18.5652174 6.4699793,18.5652174 L18.115942,18.5652174 C18.6638436,18.5652174 19.1080055,19.0129326 19.1080055,19.5652174 C19.1080055,20.1175021 18.6638436,20.5652174 18.115942,20.5652174 L6.4699793,20.5652174 Z" id="Line-14-Copy"></path>
            <path d="M6.4699793,25.7826087 C5.92207776,25.7826087 5.4779158,25.3348934 5.4779158,24.7826087 C5.4779158,24.2303239 5.92207776,23.7826087 6.4699793,23.7826087 L12.9399586,23.7826087 C13.4878601,23.7826087 13.9320221,24.2303239 13.9320221,24.7826087 C13.9320221,25.3348934 13.4878601,25.7826087 12.9399586,25.7826087 L6.4699793,25.7826087 Z" id="Line-14-Copy-2"></path>
        </g>
    </g>
</svg>