<?xml version="1.0" encoding="UTF-8"?>
<svg width="25px" height="43px" viewBox="0 0 25 43" version="1.1" xmlns="http://www.w3.org/2000/svg" xmlns:xlink="http://www.w3.org/1999/xlink">
    <!-- Generator: Sketch 51.2 (57519) - http://www.bohemiancoding.com/sketch -->
    <title>icon copy 14</title>
    <desc>Created with Sketch.</desc>
    <defs></defs>
    <g id="icon-copy-14" stroke="none" stroke-width="1" fill="none" fill-rule="evenodd">
        <path d="M11.7027774,10.7607622 C10.9726639,12.7778472 10.7750074,15.2720791 11.3182396,16.9915552 C11.5375006,17.7511596 11.9438036,18.5806717 12.7210911,19.9398898 C12.787348,20.0557512 12.8353147,20.1391932 12.9508109,20.3396812 C14.376583,22.8136643 14.8297954,23.7561212 14.9726494,24.9880344 C15.1943997,26.9003152 14.0934703,28.2382693 11.7040505,28.829863 C9.51535096,29.2771217 7.92231855,28.7340065 7.02228174,27.2802524 C6.35383655,26.2005689 6.14135191,24.787824 6.18487504,22.8607459 C6.19660562,22.34135 6.22233384,21.8646679 6.2750529,21.0785018 C6.36646867,19.7152763 6.38360212,19.335255 6.35570641,18.9042243 C4.83536408,19.4135186 2.99003698,23.1600992 2.95945102,26.7288177 C3.01447717,32.6196874 7.47820432,37.0000035 12.6949105,37.0000035 C17.6971849,37.0000035 22.0404673,32.3920513 22.0409412,26.4585341 C21.9409263,23.1777132 20.8935125,21.3633946 17.9325162,18.2712074 C17.8453748,18.1802051 17.4704537,17.7897649 17.371197,17.686079 C14.4547039,14.6394397 13.0717035,12.5442488 12.4484221,9.26876163 C12.2063645,9.58984501 11.9376074,10.1119972 11.7027774,10.7607622 Z M6.30858491,18.555866 C6.30506363,18.5434473 6.30164814,18.5336373 6.29843622,18.5265217 C6.2995939,18.5290864 6.3008148,18.531667 6.30209817,18.5342616 L6.30858491,18.555866 Z M12.484361,9.01669093 L12.4821416,9.01077914 C12.482279,9.01257919 12.4829975,9.01454683 12.484361,9.01669093 Z M14.2740393,8.31677787 C14.7597419,11.466598 15.9293727,13.3180804 18.772786,16.2883788 C18.8706617,16.3906222 19.2454436,16.7809173 19.3338968,16.8732895 C22.6062438,20.2906222 23.8806927,22.4982085 24,26.427435 C24,33.4796665 18.7967413,39 12.6949105,39 C6.41606393,39 1.06540734,33.7493281 1,26.7296464 C1.04185969,21.82163 3.82255647,16.6314655 6.87093939,16.7910982 L6.97147583,16.8016907 C7.90460113,16.9499842 8.24130998,17.695925 8.31097804,18.7724017 C8.34736458,19.3346288 8.32941753,19.7326959 8.23001195,21.2150685 C8.17918869,21.9729635 8.15475442,22.4256718 8.1438873,22.9068364 C8.10859191,24.469614 8.27174939,25.5543979 8.67880719,26.2118843 C9.10705431,26.903596 9.87229723,27.1644916 11.2804171,26.8775886 C12.7333524,26.5173395 13.1220078,26.0450085 13.0266989,25.2231047 C12.9300854,24.3899506 12.5191807,23.5354727 11.2618017,21.3536833 C11.1454019,21.1516278 11.096348,21.0662947 11.028738,20.9480673 C10.1743402,19.4540088 9.71629452,18.5188583 9.44597918,17.5812222 C8.76075174,15.4136394 8.99371589,12.4738599 9.86467116,10.0676712 C10.2792101,8.92242435 10.8036692,8.01564353 11.4005236,7.50164172 C12.3154799,6.71369551 13.4443004,6.85269345 14.1280119,7.92780541 L14.2416025,8.10642268 L14.2740393,8.31677787 Z" id="fire-copy-4" fill="#000000" fill-rule="nonzero"></path>
    </g>
</svg>