<?xml version="1.0" encoding="UTF-8"?>
<svg width="39px" height="43px" viewBox="0 0 39 43" version="1.1" xmlns="http://www.w3.org/2000/svg" xmlns:xlink="http://www.w3.org/1999/xlink">
    <!-- Generator: Sketch 51.2 (57519) - http://www.bohemiancoding.com/sketch -->
    <title>icon</title>
    <desc>Created with Sketch.</desc>
    <defs></defs>
    <g id="icon" stroke="none" stroke-width="1" fill="none" fill-rule="evenodd">
        <g id="Group-7-Copy-5" transform="translate(1.000000, 6.000000)" fill="#000000">
            <path d="M6.78071253,14.8296923 L6.78071253,27.9732291 L13.6831693,27.9732291 L13.6831693,22.1901656 C13.6831693,20.5111337 15.0469408,19.1500093 16.7292381,19.1500093 L20.2296153,19.1500093 C21.9119126,19.1500093 23.2756841,20.5111337 23.2756841,22.1901656 L23.2756841,27.9732291 L30.2692875,27.9732291 L30.2692875,14.8296923 L18.525,6.92325825 L6.78071253,14.8296923 Z M5.19756696,13.4507445 L17.9572107,4.86075708 C18.3003542,4.62974764 18.7496458,4.62974764 19.0927893,4.86075708 L31.852433,13.4507445 C32.1322629,13.6391302 32.3,13.9539896 32.3,14.2908728 L32.3,28.9866146 C32.3,29.5462919 31.8454095,30 31.2846437,30 L22.2603278,30 C21.699562,30 21.2449716,29.5462919 21.2449716,28.9866146 L21.2449716,22.1901656 C21.2449716,21.6304883 20.7903811,21.1767802 20.2296153,21.1767802 L16.7292381,21.1767802 C16.1684723,21.1767802 15.7138819,21.6304883 15.7138819,22.1901656 L15.7138819,28.9866146 C15.7138819,29.5462919 15.2592914,30 14.6985256,30 L5.76535627,30 C5.20459048,30 4.75,29.5462919 4.75,28.9866146 L4.75,14.2908728 C4.75,13.9539896 4.91773706,13.6391302 5.19756696,13.4507445 Z" id="Rectangle-15"></path>
            <path d="M18.0756757,15.0253378 L18.0756757,15.9121622 L18.9743243,15.9121622 L18.9743243,15.0253378 L18.0756757,15.0253378 Z M18.9743243,13.125 C20.0378456,13.125 20.9,13.9758102 20.9,15.0253378 L20.9,15.9121622 C20.9,16.9616898 20.0378456,17.8125 18.9743243,17.8125 L18.0756757,17.8125 C17.0121544,17.8125 16.15,16.9616898 16.15,15.9121622 L16.15,15.0253378 C16.15,13.9758102 17.0121544,13.125 18.0756757,13.125 L18.9743243,13.125 Z" id="Rectangle-15-Copy"></path>
            <path d="M37.5391161,12.1484675 C38.0116825,12.4655426 38.1422175,13.1124756 37.8306741,13.5934327 C37.5191307,14.0743899 36.8834841,14.2072426 36.4109177,13.8901676 L18.8182695,2.08613334 L1.59729062,13.884596 C1.12774761,14.20629 0.49087293,14.0796762 0.174791199,13.6017961 C-0.141290531,13.123916 -0.0168855887,12.4757331 0.452657415,12.1540391 L17.6736363,0.355576426 C18.359668,-0.114438656 19.2560187,-0.118833245 19.9464679,0.344433286 L37.5391161,12.1484675 Z" id="Path-2"></path>
        </g>
    </g>
</svg>