<?xml version="1.0" encoding="UTF-8"?>
<svg width="33px" height="43px" viewBox="0 0 33 43" version="1.1" xmlns="http://www.w3.org/2000/svg" xmlns:xlink="http://www.w3.org/1999/xlink">
    <!-- Generator: Sketch 51.2 (57519) - http://www.bohemiancoding.com/sketch -->
    <title>icon copy 8</title>
    <desc>Created with Sketch.</desc>
    <defs></defs>
    <g id="icon-copy-8" stroke="none" stroke-width="1" fill="none" fill-rule="evenodd">
        <g id="Group-9-Copy-4" transform="translate(1.000000, 7.000000)" fill="#000000" fill-rule="nonzero">
            <path d="M8.2,1 L8.2,21.8 L29,21.8 L29,1 L8.2,1 Z M8.2,-1 L29,-1 C30.1045695,-1 31,-0.1045695 31,1 L31,21.8 C31,22.9045695 30.1045695,23.8 29,23.8 L8.2,23.8 C7.0954305,23.8 6.2,22.9045695 6.2,21.8 L6.2,1 C6.2,-0.1045695 7.0954305,-1 8.2,-1 Z" id="Path"></path>
            <path d="M13.8,9.4 C12.2536027,9.4 11,8.1463973 11,6.6 C11,5.0536027 12.2536027,3.8 13.8,3.8 C15.3463973,3.8 16.6,5.0536027 16.6,6.6 C16.6,8.1463973 15.3463973,9.4 13.8,9.4 Z M13.8,7.4 C14.2418278,7.4 14.6,7.0418278 14.6,6.6 C14.6,6.1581722 14.2418278,5.8 13.8,5.8 C13.3581722,5.8 13,6.1581722 13,6.6 C13,7.0418278 13.3581722,7.4 13.8,7.4 Z" id="Oval"></path>
            <path d="M19.9285814,26.3713144 C19.9285814,25.8190296 20.3762967,25.3713144 20.9285814,25.3713144 C21.4808662,25.3713144 21.9285814,25.8190296 21.9285814,26.3713144 L21.9285814,29.3890292 C21.9285814,29.941314 21.4808662,30.3890292 20.9285814,30.3890292 L0.520509743,30.3890292 C-0.0317750066,30.3890292 -0.479490257,29.941314 -0.479490257,29.3890292 L-0.479490257,9.97090883 C-0.479490257,9.41862408 -0.0317750066,8.97090883 0.520509743,8.97090883 L3.0307988,8.97090883 C3.58308355,8.97090883 4.0307988,9.41862408 4.0307988,9.97090883 C4.0307988,10.5231936 3.58308355,10.9709088 3.0307988,10.9709088 L1.52050974,10.9709088 L1.52050974,28.3890292 L19.9285814,28.3890292 L19.9285814,26.3713144 Z" id="Path-18"></path>
            <path d="M12.9877014,17.7166264 L24.5819129,17.7166264 L21.4583132,12.4000773 L18.2237502,16.6541434 C17.8465236,17.1502682 17.112299,17.1842043 16.6909164,16.7249915 L15.2265949,15.1292085 L12.9877014,17.7166264 Z M17.3557322,14.491376 L20.7689685,10.0023204 C21.1994981,9.43609207 22.0668728,9.48771592 22.4272001,10.1010139 L27.1914598,18.2100621 C27.5831255,18.8766998 27.102438,19.7166264 26.3292577,19.7166264 L10.8,19.7166264 C9.94344292,19.7166264 9.48331996,18.7100148 10.0437998,18.0622862 L14.4484842,12.9719326 C14.8396212,12.5199081 15.5373413,12.5097365 15.9414888,12.9501669 L17.3557322,14.491376 Z" id="Path-17"></path>
        </g>
    </g>
</svg>