<?xml version="1.0" encoding="UTF-8"?>
<svg width="35px" height="43px" viewBox="0 0 35 43" version="1.1" xmlns="http://www.w3.org/2000/svg" xmlns:xlink="http://www.w3.org/1999/xlink">
    <!-- Generator: Sketch 51.2 (57519) - http://www.bohemiancoding.com/sketch -->
    <title>icon copy 11</title>
    <desc>Created with Sketch.</desc>
    <defs></defs>
    <g id="icon-copy-11" stroke="none" stroke-width="1" fill="none" fill-rule="evenodd">
        <g id="leaf-copy-3" transform="translate(2.000000, 11.000000)" fill="#000000">
            <path d="M8.52075565,17.5566192 C8.17585406,17.9857287 7.55117701,18.0517378 7.12550042,17.7040548 C6.69982383,17.3563717 6.63434275,16.7266569 6.97924435,16.2975475 C9.1967899,13.5385872 11.1315542,11.7691388 12.8397893,10.9864064 C14.5180848,10.2173927 17.5125877,9.7084175 21.8934184,9.41881006 C22.4401106,9.3826694 22.9123556,9.80012722 22.9482071,10.3512282 C22.9840586,10.9023292 22.5699405,11.3783826 22.0232483,11.4145233 C17.8688443,11.6891621 15.0579795,12.1669244 13.6607744,12.8071394 C12.2935088,13.4336357 10.5614185,15.0177276 8.52075565,17.5566192 Z M5.358932,20.7571003 L5.45180971,20.5958636 L5.59608701,20.4792009 C6.24800081,19.9520626 6.86093722,20.099983 7.68111127,20.5922186 C7.72203062,20.6167767 8.91728162,21.3955052 9.35818455,21.6438461 C12.6892939,23.5201107 16.6356188,23.4929098 22.5747213,20.2025368 C27.2988625,16.9594979 29.57519,13.0952653 29.9531874,8.89671854 C30.2143234,5.99619045 29.5065517,3.12147741 28.5481685,1.40155545 C28.2880821,0.974158372 28.2238205,0.94866661 27.9250138,1.04574863 C27.7042116,1.11748703 27.4211949,1.26051683 26.986359,1.51786248 C27.0565682,1.4763111 25.9380351,2.15370054 25.5707328,2.36156015 C24.3808584,3.0349207 23.2909447,3.48881075 21.9942313,3.76209694 C20.8444156,3.93443987 19.9029619,3.9837817 17.7750768,4.02935223 C16.0098894,4.06715528 15.2357034,4.09934225 14.2723153,4.19805057 C9.87077633,4.64903031 6.8733689,6.42158107 4.33882936,10.8510104 C3.68811927,12.2588561 3.61028336,13.5241524 3.83378885,15.5426966 C4.09403378,17.8930454 4.08315187,18.2472996 3.09124487,18.8286723 C1.68840545,19.587511 0.885598219,20.8357768 1.00410858,22.1449284 C1.08011078,23.0080264 1.85400359,23.7271551 2.85392732,23.7396221 C3.51668678,23.7337364 3.81283207,23.5156778 4.29156915,22.7055425 C4.4329987,22.4662106 5.12464209,21.1638301 5.358932,20.7571003 Z M5.99605986,23.7290966 C5.19465091,25.0852684 4.32359308,25.7266481 2.85061389,25.7395095 C0.81357892,25.7145592 -0.805873674,24.2097064 -0.971901059,22.3242276 C-1.16400058,20.202211 0.0336743514,18.2785931 1.97047537,17.1682821 C1.98127398,16.8573192 1.97268358,16.7638687 1.86203369,15.7645569 C1.6015211,13.4117907 1.69902207,11.8268201 2.57998554,9.92965109 C5.49020941,4.83507333 9.06458037,2.72132867 14.0716954,2.20830188 C15.1053656,2.10239248 15.9147816,2.06874082 17.7329371,2.02980341 C19.7760554,1.98604823 20.6638329,1.93951959 21.6440303,1.79440935 C22.6603409,1.57878572 23.571549,1.19931685 24.5995246,0.61757629 C24.9366151,0.426813793 26.0297869,-0.235216678 25.98189,-0.206870195 C26.5331171,-0.533098783 26.9222968,-0.729780799 27.3164005,-0.857824713 C28.502741,-1.24326559 29.5092191,-0.844008337 30.2584584,0.388594801 C31.4230727,2.476823 32.2287243,5.74908826 31.9290666,9.07748874 C31.4971745,13.8746638 28.9034647,18.277676 23.6114451,21.9051355 C16.9991921,25.5741374 12.3257165,25.6063504 8.39044514,23.3897884 C7.96106423,23.1479373 7.02037942,22.5409834 6.74394691,22.3614493 C6.46162115,22.881456 6.11041525,23.5355805 5.99605986,23.7290966 Z" id="Path-13"></path>
        </g>
    </g>
</svg>