<?xml version="1.0" encoding="UTF-8"?>
<svg width="21px" height="43px" viewBox="0 0 21 43" version="1.1" xmlns="http://www.w3.org/2000/svg" xmlns:xlink="http://www.w3.org/1999/xlink">
    <!-- Generator: Sketch 51.2 (57519) - http://www.bohemiancoding.com/sketch -->
    <title>icon copy 18</title>
    <desc>Created with Sketch.</desc>
    <defs></defs>
    <g id="icon-copy-18" stroke="none" stroke-width="1" fill="none" fill-rule="evenodd">
        <path d="M5.036805,27.979927 C4.9585989,27.979927 4.88040932,27.9776866 4.80233526,27.9732087 C2.57670009,27.8455564 0.877441974,25.9635023 1.00693603,23.769523 L1.8307965,9.81110081 C1.92394945,8.23283813 3.24945584,7 4.85319822,7 L11.5037533,7 C11.6272251,7 11.7505814,7.00744593 11.8731308,7.02229608 C13.5326887,7.22339605 14.7126503,8.71262212 14.5086487,10.3485756 L13.5830365,17.7713553 L16.9717416,17.7713553 C17.4014752,17.7713553 17.8262852,17.8615389 18.2179253,18.0359097 C19.7417571,18.7143688 20.4191314,20.4821082 19.7308832,21.984266 L12.7393749,37.2438017 C12.1721946,38.481719 10.8285756,39.185933 9.4703355,38.9571621 C7.82217119,38.6795587 6.71435907,37.1374193 6.99596788,35.5126974 L8.30160329,27.979927 L5.036805,27.979927 Z M4.85319822,8.98963461 C4.31861743,8.98963461 3.87678196,9.40058065 3.84573098,9.92666821 L3.02187052,23.8850904 C2.95712349,24.9820801 3.80675254,25.9231071 4.91957013,25.9869332 C4.95860716,25.9891722 4.99770195,25.9902924 5.036805,25.9902924 L9.49782827,25.9902924 C10.1231026,25.9902924 10.597893,26.5450823 10.4925834,27.1526582 L8.98547819,35.8477943 C8.89160859,36.3893683 9.2608793,36.9034148 9.8102674,36.9959492 C10.2630141,37.0722062 10.7108871,36.8374682 10.8999472,36.4248291 L17.8914554,21.1652935 C18.1208715,20.6645742 17.8950801,20.0753277 17.3871362,19.8491747 C17.2565894,19.7910511 17.1149861,19.7609899 16.9717416,19.7609899 L13.5830365,19.7609899 C12.4683369,19.7609899 11.5646944,18.8702001 11.5646944,17.7713553 C11.5646944,17.6902115 11.56973,17.6091437 11.5797729,17.5286061 L12.5053851,10.1058265 C12.5733856,9.56050865 12.1800651,9.06409996 11.6268791,8.99706664 C11.5860293,8.99211659 11.5449106,8.98963461 11.5037533,8.98963461 L4.85319822,8.98963461 Z" id="bolt-copy-3" fill="#000000" fill-rule="nonzero"></path>
    </g>
</svg>