<?xml version="1.0" encoding="UTF-8"?>
<svg width="43px" height="43px" viewBox="0 0 43 43" version="1.1" xmlns="http://www.w3.org/2000/svg" xmlns:xlink="http://www.w3.org/1999/xlink">
    <!-- Generator: Sketch 51.2 (57519) - http://www.bohemiancoding.com/sketch -->
    <title>icon copy 5</title>
    <desc>Created with Sketch.</desc>
    <defs></defs>
    <g id="icon-copy-5" stroke="none" stroke-width="1" fill="none" fill-rule="evenodd">
        <g id="Group-17-Copy-3" transform="translate(7.000000, 6.000000)" fill="#000000">
            <path d="M2,13.25 L2,28 L26.75,28 L26.75,13.25 L2,13.25 Z M2,11.25 L26.75,11.25 C27.8545695,11.25 28.75,12.1454305 28.75,13.25 L28.75,28 C28.75,29.1045695 27.8545695,30 26.75,30 L2,30 C0.8954305,30 1.3527075e-16,29.1045695 0,28 L0,13.25 C-1.3527075e-16,12.1454305 0.8954305,11.25 2,11.25 Z" id="Rectangle-20" fill-rule="nonzero"></path>
            <path d="M13.375,18.125 C13.375,17.5727153 13.8227153,17.125 14.375,17.125 C14.9272847,17.125 15.375,17.5727153 15.375,18.125 L15.375,20.625 C15.375,21.1772847 14.9272847,21.625 14.375,21.625 C13.8227153,21.625 13.375,21.1772847 13.375,20.625 L13.375,18.125 Z" id="Line-11" fill-rule="nonzero"></path>
            <circle id="Oval-10" cx="14.375" cy="18.125" r="1.875"></circle>
            <path d="M24.8394859,11.6489561 L22.8414342,11.5606985 C23.1566097,4.42548308 20.5206191,1.06732443 14.7205992,1.00095848 C8.91569751,0.934536662 6.11592077,4.31303636 6.11592077,11.6048273 L4.11592077,11.6048273 C4.11592077,3.27817221 7.72689076,-1.07919702 14.7434825,-0.998910608 C21.7649561,-0.918568333 25.2012449,3.45914195 24.8394859,11.6489561 Z" id="Path-19" fill-rule="nonzero"></path>
        </g>
    </g>
</svg>