<?xml version="1.0" encoding="UTF-8"?>
<svg width="32px" height="43px" viewBox="0 0 32 43" version="1.1" xmlns="http://www.w3.org/2000/svg" xmlns:xlink="http://www.w3.org/1999/xlink">
    <!-- Generator: Sketch 51.2 (57519) - http://www.bohemiancoding.com/sketch -->
    <title>icon copy 10</title>
    <desc>Created with Sketch.</desc>
    <defs></defs>
    <g id="icon-copy-10" stroke="none" stroke-width="1" fill="none" fill-rule="evenodd">
        <g id="Group-20-Copy-3" transform="translate(1.000000, 7.000000)" fill="#000000">
            <path d="M5.63636364,22.5 C5.11755069,22.5 4.6969697,22.080267 4.6969697,21.5625 C4.6969697,21.044733 5.11755069,20.625 5.63636364,20.625 L13.6007905,20.625 C14.1196035,20.625 14.5401845,21.044733 14.5401845,21.5625 C14.5401845,22.080267 14.1196035,22.5 13.6007905,22.5 L5.63636364,22.5 Z" id="Line-7" fill-rule="nonzero"></path>
            <path d="M5.63636364,17.8125 C5.11755069,17.8125 4.6969697,17.392767 4.6969697,16.875 C4.6969697,16.357233 5.11755069,15.9375 5.63636364,15.9375 L13.6007905,15.9375 C14.1196035,15.9375 14.5401845,16.357233 14.5401845,16.875 C14.5401845,17.392767 14.1196035,17.8125 13.6007905,17.8125 L5.63636364,17.8125 Z" id="Line-7-Copy" fill-rule="nonzero"></path>
            <path d="M1.87878788,13.7771739 C1.87878788,14.2949409 1.45820689,14.7146739 0.939393939,14.7146739 C0.420580993,14.7146739 2.20268248e-13,14.2949409 2.11090404e-13,13.7771739 L0,1.875 C-1.72084569e-14,0.839466094 0.841161985,1.66533454e-14 1.87878788,0 L24.5059289,1.54043445e-14 C25.5435547,1.14491749e-14 26.3847167,0.839466094 26.3847167,1.875 L26.3847167,25.6793478 C26.3847167,26.7148817 25.5435547,27.5543478 24.5059289,27.5543478 L10.8324404,27.5543478 C10.3136275,27.5543478 9.8930465,27.1346148 9.8930465,26.6168478 C9.8930465,26.0990809 10.3136275,25.6793478 10.8324404,25.6793478 L24.5059289,25.6793478 L24.5059289,1.875 L1.87878788,1.875 L1.87878788,13.7771739 Z" id="Path-21" fill-rule="nonzero" transform="translate(13.192358, 13.777174) scale(-1, 1) translate(-13.192358, -13.777174) "></path>
            <path d="M4.6969697,6.5625 C4.17815675,6.5625 3.75757576,6.14276695 3.75757576,5.625 C3.75757576,5.10723305 4.17815675,4.6875 4.6969697,4.6875 L20.0131752,4.6875 C20.5319882,4.6875 20.9525692,5.10723305 20.9525692,5.625 C20.9525692,6.14276695 20.5319882,6.5625 20.0131752,6.5625 L4.6969697,6.5625 Z" id="Line-7-Copy-2" fill-rule="nonzero"></path>
            <path d="M4.6969697,11.25 C4.17815675,11.25 3.75757576,10.830267 3.75757576,10.3125 C3.75757576,9.79473305 4.17815675,9.375 4.6969697,9.375 L20.0131752,9.375 C20.5319882,9.375 20.9525692,9.79473305 20.9525692,10.3125 C20.9525692,10.830267 20.5319882,11.25 20.0131752,11.25 L4.6969697,11.25 Z" id="Line-7-Copy-3" fill-rule="nonzero"></path>
            <path d="M24.4242424,21.5606061 L24.4242424,18.75 C24.4242424,18.232233 24.0036614,17.8125 23.4848485,17.8125 C22.9660355,17.8125 22.5454545,18.232233 22.5454545,18.75 L22.5454545,21.5606061 L19.7346838,21.5606061 C19.2169168,21.5606061 18.7971838,21.9811871 18.7971838,22.5 C18.7971838,23.0188129 19.2169168,23.4393939 19.7346838,23.4393939 L22.5454545,23.4393939 L22.5454545,26.0869565 C22.5454545,26.6047235 22.9660355,27.0244565 23.4848485,27.0244565 C24.0036614,27.0244565 24.4242424,26.6047235 24.4242424,26.0869565 L24.4242424,23.4393939 L27.0716403,23.4393939 C27.5894073,23.4393939 28.0091403,23.0188129 28.0091403,22.5 C28.0091403,21.9811871 27.5894073,21.5606061 27.0716403,21.5606061 L24.4242424,21.5606061 Z M23.6482213,29.388587 C19.9263024,29.388587 16.9090909,26.3774586 16.9090909,22.6630435 C16.9090909,18.9486284 19.9263024,15.9375 23.6482213,15.9375 C27.3701403,15.9375 30.3873518,18.9486284 30.3873518,22.6630435 C30.3873518,26.3774586 27.3701403,29.388587 23.6482213,29.388587 Z" id="Combined-Shape"></path>
        </g>
    </g>
</svg>