<?xml version="1.0" encoding="UTF-8"?>
<svg width="32px" height="43px" viewBox="0 0 32 43" version="1.1" xmlns="http://www.w3.org/2000/svg" xmlns:xlink="http://www.w3.org/1999/xlink">
    <!-- Generator: Sketch 51.2 (57519) - http://www.bohemiancoding.com/sketch -->
    <title>icon copy 7</title>
    <desc>Created with Sketch.</desc>
    <defs></defs>
    <g id="icon-copy-7" stroke="none" stroke-width="1" fill="none" fill-rule="evenodd">
        <g id="Group-10-Copy-8" transform="translate(2.000000, 5.000000)" fill="#000000" fill-rule="nonzero">
            <path d="M22.209571,6.48328619 L26.609571,6.48328619 L26.609571,4.6975719 L22.209571,4.6975719 L22.209571,6.48328619 Z M21.209571,2.6975719 L27.609571,2.6975719 C28.1618557,2.6975719 28.609571,3.14528715 28.609571,3.6975719 L28.609571,7.48328619 C28.609571,8.03557094 28.1618557,8.48328619 27.609571,8.48328619 L21.209571,8.48328619 C20.6572862,8.48328619 20.209571,8.03557094 20.209571,7.48328619 L20.209571,3.6975719 C20.209571,3.14528715 20.6572862,2.6975719 21.209571,2.6975719 Z" id="Rectangle-16-Copy-2" transform="translate(24.409571, 5.590429) rotate(45.000000) translate(-24.409571, -5.590429) "></path>
            <path d="M10.6258242,6.84228402 L10.6258242,24.1486094 L12.8258242,26.9971985 L15.0258242,24.1486094 L15.0258242,6.84228402 L10.6258242,6.84228402 Z M9.62582416,4.84228402 L16.0258242,4.84228402 C16.5781089,4.84228402 17.0258242,5.28999927 17.0258242,5.84228402 L17.0258242,24.48981 C17.0258242,24.7110162 16.9524786,24.9259795 16.8172681,25.1010518 L13.6172681,29.2444541 C13.2796886,29.6815566 12.6516848,29.7622358 12.2145824,29.4246563 C12.1470756,29.37252 12.0865166,29.311961 12.0343802,29.2444541 L8.83438023,25.1010518 C8.69916976,24.9259795 8.62582416,24.7110162 8.62582416,24.48981 L8.62582416,5.84228402 C8.62582416,5.28999927 9.07353941,4.84228402 9.62582416,4.84228402 Z" id="Rectangle-16-Copy-3" transform="translate(12.825824, 17.237772) rotate(45.000000) translate(-12.825824, -17.237772) "></path>
            <path d="M24.2,29 L24.2,14.4486131 C24.2,13.8963284 24.6477153,13.4486131 25.2,13.4486131 C25.7522847,13.4486131 26.2,13.8963284 26.2,14.4486131 L26.2,30 C26.2,30.5522847 25.7522847,31 25.2,31 L0,31 C-0.55228475,31 -1,30.5522847 -1,30 L-1,4.8 C-1,4.24771525 -0.55228475,3.8 0,3.8 L14.8403191,3.8 C15.3926039,3.8 15.8403191,4.24771525 15.8403191,4.8 C15.8403191,5.35228475 15.3926039,5.8 14.8403191,5.8 L1,5.8 L1,29 L24.2,29 Z" id="Path-6"></path>
        </g>
    </g>
</svg>