<?xml version="1.0" encoding="UTF-8"?>
<svg width="43px" height="43px" viewBox="0 0 43 43" version="1.1" xmlns="http://www.w3.org/2000/svg" xmlns:xlink="http://www.w3.org/1999/xlink">
    <!-- Generator: Sketch 51.2 (57519) - http://www.bohemiancoding.com/sketch -->
    <title>icon copy 4</title>
    <desc>Created with Sketch.</desc>
    <defs></defs>
    <g id="icon-copy-4" stroke="none" stroke-width="2" fill="none" fill-rule="evenodd">
        <g id="Group-16-Copy-4" transform="translate(4.000000, 7.000000)" fill="#000000" fill-rule="nonzero">
            <path d="M16.875,14.75 C12.5257576,14.75 9,11.2242424 9,6.875 C9,2.5257576 12.5257576,-1 16.875,-1 C21.2242424,-1 24.75,2.5257576 24.75,6.875 C24.75,11.2242424 21.2242424,14.75 16.875,14.75 Z M16.875,12.75 C20.1196729,12.75 22.75,10.1196729 22.75,6.875 C22.75,3.63032709 20.1196729,1 16.875,1 C13.6303271,1 11,3.63032709 11,6.875 C11,10.1196729 13.6303271,12.75 16.875,12.75 Z" id="Oval"></path>
            <path d="M30.2806602,26.8832541 C30.4781738,25.1794737 30.4320312,24.1116368 30.2918624,23.8752926 C28.1491871,20.2624412 22.3654699,18.1665229 16.3580407,18.1559112 C10.5249387,18.1456074 4.99240205,20.2007465 2.41455921,23.9817243 C2.43033669,23.9585832 2.41747667,23.9902063 2.39632062,24.0806894 C2.35561849,24.2547699 2.32761587,24.4979659 2.31883633,24.8045677 C2.30317725,25.3514184 2.3496309,26.0469605 2.46106678,26.883207 L30.2806602,26.8832541 Z M16.3615736,16.1559143 C21.5752513,16.1651239 29.0390925,17.8421969 32.0120849,22.8550795 C32.4893158,23.6597579 32.5342847,25.3841302 32.1469916,28.0281962 C32.0750523,28.5192538 31.6538488,28.8832555 31.1575496,28.8832555 L1.59998329,28.8832056 C1.11069002,28.8832056 0.693259918,28.5291353 0.613431404,28.046398 C0.172179424,25.3780683 0.221730582,23.6476288 0.762084876,22.8550795 C4.1920447,17.8242832 11.1431894,16.1466964 16.3615736,16.1559143 Z" id="Rectangle-19"></path>
        </g>
    </g>
</svg>
