<?xml version="1.0" encoding="UTF-8"?>
<svg width="43px" height="43px" viewBox="0 0 43 43" version="1.1" xmlns="http://www.w3.org/2000/svg" xmlns:xlink="http://www.w3.org/1999/xlink">
    <!-- Generator: Sketch 51.2 (57519) - http://www.bohemiancoding.com/sketch -->
    <title>icon copy 6</title>
    <desc>Created with Sketch.</desc>
    <defs></defs>
    <g id="icon-copy-6" stroke="none" stroke-width="1" fill="none" fill-rule="evenodd">
        <g id="Group-16-Copy-5" transform="translate(7.000000, 6.000000)" fill="#000000" fill-rule="nonzero">
            <path d="M14.4642857,29.9285714 C5.92359655,29.9285714 -1,23.0049749 -1,14.4642857 C-1,5.92359655 5.92359655,-1 14.4642857,-1 C23.0049749,-1 29.9285714,5.92359655 29.9285714,14.4642857 C29.9285714,23.0049749 23.0049749,29.9285714 14.4642857,29.9285714 Z M14.4642857,27.9285714 C21.9004054,27.9285714 27.9285714,21.9004054 27.9285714,14.4642857 C27.9285714,7.02816605 21.9004054,1 14.4642857,1 C7.02816605,1 1,7.02816605 1,14.4642857 C1,21.9004054 7.02816605,27.9285714 14.4642857,27.9285714 Z" id="Oval-9"></path>
            <path d="M14.4642857,17.0714286 C10.6574658,17.0714286 7.57142857,13.9853913 7.57142857,10.1785714 C7.57142857,6.37175155 10.6574658,3.28571429 14.4642857,3.28571429 C18.2711056,3.28571429 21.3571429,6.37175155 21.3571429,10.1785714 C21.3571429,13.9853913 18.2711056,17.0714286 14.4642857,17.0714286 Z M14.4642857,15.0714286 C17.1665361,15.0714286 19.3571429,12.8808218 19.3571429,10.1785714 C19.3571429,7.47632105 17.1665361,5.28571429 14.4642857,5.28571429 C11.7620353,5.28571429 9.57142857,7.47632105 9.57142857,10.1785714 C9.57142857,12.8808218 11.7620353,15.0714286 14.4642857,15.0714286 Z" id="Oval"></path>
            <path d="M6.49913882,25.0422462 C8.74461855,26.5423602 11.575464,27.5714757 14.147173,27.6721512 C16.6666093,27.7707803 19.4240826,26.9076461 21.6664593,25.4826552 C22.5049657,24.9497992 23.1879851,24.3832332 23.6063151,23.9031331 C21.5229087,21.5268148 17.9248653,20.1425034 14.0196692,20.1336449 C10.2823337,20.1251672 7.45804045,21.1483874 4.75307307,23.6129446 C5.15523676,24.0451476 5.76186258,24.5497019 6.49913882,25.0422462 Z M14.0242059,18.1336501 C18.4930725,18.1437872 23.2160147,19.8160548 25.7558611,23.4021533 C26.7729739,24.8382507 20.5898298,29.9258958 14.0689383,29.6706204 C7.54804684,29.415345 1.27699924,24.2585051 2.56100661,22.9500453 C5.98772774,19.4580666 9.55130521,18.1235038 14.0242059,18.1336501 Z" id="Rectangle-19"></path>
        </g>
    </g>
</svg>