<?xml version="1.0" encoding="UTF-8"?>
<svg width="32px" height="43px" viewBox="0 0 32 43" version="1.1" xmlns="http://www.w3.org/2000/svg" xmlns:xlink="http://www.w3.org/1999/xlink">
    <!-- Generator: Sketch 51.2 (57519) - http://www.bohemiancoding.com/sketch -->
    <title>icon copy 17</title>
    <desc>Created with Sketch.</desc>
    <defs></defs>
    <g id="icon-copy-17" stroke="none" stroke-width="1" fill="none" fill-rule="evenodd">
        <path d="M26.9633068,24.7859755 C22.5443654,31.7875935 14.9750197,36.2249094 3.92735571,36.9908496 L3.79537309,37 L3.66561787,36.9740822 C2.20334012,36.6820018 1.54261486,34.5241263 1.02042609,30.0592855 C0.866917764,28.7467519 1.59027132,27.4888713 2.79899467,26.9664293 L6.64822617,25.3026821 C8.43314097,24.531195 10.5117699,25.1719035 11.5584076,26.8161771 C12.0710055,27.6214774 12.4871785,28.1850817 12.78703,28.4919251 C17.1822712,26.4004717 21.5167769,21.8586626 22.3184293,19.0077084 C22.1518348,18.7942345 21.5672383,18.2733229 20.5814365,17.6264978 C18.8914009,16.517596 18.3002497,14.3108179 19.2081532,12.5000019 L20.86658,9.19227907 C21.6482678,7.63320062 23.3495933,6.76681332 25.063903,7.0548231 C29.1464135,7.74073674 30.8162451,8.27780225 30.9059941,9.58702905 C31.3734589,13.7149193 30.1034151,19.8106122 26.9633068,24.7859755 Z M12.2784541,28.7506165 L12.4302093,28.6613639 C12.3790022,28.684093 12.3280169,28.7135653 12.2784541,28.7506165 Z M12.9453706,28.6396991 C12.9514024,28.6446255 12.9546716,28.6471314 12.954868,28.6472206 C12.9546184,28.6471071 12.9514526,28.6446 12.9453706,28.6396991 Z M28.3409585,9.81200103 C27.5604283,9.55755337 26.3541478,9.29108596 24.7366612,9.01932766 C23.8795057,8.87532267 23.0288399,9.30851791 22.6379954,10.0880583 L20.9795686,13.3957812 C20.5256165,14.3011899 20.8211925,15.4045807 21.6662117,15.9590325 C23.3328225,17.0525644 24.2128206,17.9100023 24.3340686,18.8324574 L24.35649,19.0030396 L24.3206214,19.1712885 C23.5611232,22.7338687 18.502302,28.0815325 13.3620861,30.4194908 C12.2590024,31.1537798 11.3741441,30.2247414 9.8873655,27.8889859 C9.36404658,27.0668491 8.32473093,26.7464945 7.4322755,27.1322372 L3.58304401,28.7959843 C3.1801377,28.970131 2.93902105,29.3894225 2.99019023,29.8269315 C3.21068418,31.7122083 3.46886466,33.1330829 3.75693144,34.0738857 C3.88420825,34.4895616 4.0125103,34.7941898 4.12887311,34.9790576 C14.3668943,34.1917632 21.2548849,30.1101894 25.2881536,23.7196527 C28.1155602,19.2397516 29.3012864,13.7453832 28.9604015,10.0555878 C28.8202312,9.98383335 28.6116475,9.90024383 28.3409585,9.81200103 Z" id="phone-copy-3" fill="#000000" fill-rule="nonzero"></path>
    </g>
</svg>