<?xml version="1.0" encoding="UTF-8"?>
<svg width="32px" height="43px" viewBox="0 0 32 43" version="1.1" xmlns="http://www.w3.org/2000/svg" xmlns:xlink="http://www.w3.org/1999/xlink">
    <!-- Generator: Sketch 51.2 (57519) - http://www.bohemiancoding.com/sketch -->
    <title>icon copy</title>
    <desc>Created with Sketch.</desc>
    <defs></defs>
    <g id="icon-copy" stroke="none" stroke-width="1" fill="none" fill-rule="evenodd">
        <g id="Group-11-Copy-9" transform="translate(1.000000, 7.000000)" fill="#000000" fill-rule="nonzero">
            <path d="M21.25,9.75 C20.6977153,9.75 20.25,9.30228475 20.25,8.75 C20.25,8.19771525 20.6977153,7.75 21.25,7.75 L29.2361111,7.75 C29.7883959,7.75 30.2361111,8.19771525 30.2361111,8.75 C30.2361111,9.30228475 29.7883959,9.75 29.2361111,9.75 L21.25,9.75 Z" id="Line-7"></path>
            <path d="M21.25,16 C20.6977153,16 20.25,15.5522847 20.25,15 C20.25,14.4477153 20.6977153,14 21.25,14 L29.2361111,14 C29.7883959,14 30.2361111,14.4477153 30.2361111,15 C30.2361111,15.5522847 29.7883959,16 29.2361111,16 L21.25,16 Z" id="Line-7-Copy"></path>
            <path d="M1.25,22.25 C0.69771525,22.25 0.25,21.8022847 0.25,21.25 C0.25,20.6977153 0.69771525,20.25 1.25,20.25 L29.25,20.25 C29.8022847,20.25 30.25,20.6977153 30.25,21.25 C30.25,21.8022847 29.8022847,22.25 29.25,22.25 L1.25,22.25 Z" id="Line-7-Copy-2"></path>
            <path d="M1.25,28.5 C0.69771525,28.5 0.25,28.0522847 0.25,27.5 C0.25,26.9477153 0.69771525,26.5 1.25,26.5 L29.25,26.5 C29.8022847,26.5 30.25,26.9477153 30.25,27.5 C30.25,28.0522847 29.8022847,28.5 29.25,28.5 L1.25,28.5 Z" id="Line-7-Copy-3"></path>
            <path d="M2,2 L2,15 L15,15 L15,2 L2,2 Z M1,0 L16,0 C16.5522847,-1.01453063e-16 17,0.44771525 17,1 L17,16 C17,16.5522847 16.5522847,17 16,17 L1,17 C0.44771525,17 6.76353751e-17,16.5522847 0,16 L0,1 C-6.76353751e-17,0.44771525 0.44771525,1.01453063e-16 1,0 Z" id="Rectangle-17"></path>
            <path d="M11.7808991,5.55509435 C12.1646849,5.15794587 12.7977572,5.14711329 13.1949057,5.53089908 C13.5920541,5.91468488 13.6028867,6.54775718 13.2191009,6.94490565 L7.66876084,12.6884978 L4.2814095,9.18835201 C3.89733221,8.79148544 3.90769997,8.15840535 4.30456654,7.77432805 C4.70143311,7.39025076 5.3345132,7.40061852 5.7185905,7.79748509 L7.66770464,9.81150222 L11.7808991,5.55509435 Z" id="Path-9"></path>
        </g>
    </g>
</svg>