<?xml version="1.0" encoding="UTF-8"?>
<svg width="32px" height="43px" viewBox="0 0 32 43" version="1.1" xmlns="http://www.w3.org/2000/svg" xmlns:xlink="http://www.w3.org/1999/xlink">
    <!-- Generator: Sketch 51.2 (57519) - http://www.bohemiancoding.com/sketch -->
    <title>icon copy 12</title>
    <desc>Created with Sketch.</desc>
    <defs></defs>
    <g id="icon-copy-12" stroke="none" stroke-width="1" fill="none" fill-rule="evenodd">
        <g id="recycle-copy-3" transform="translate(1.000000, 7.000000)" fill="#000000" fill-rule="nonzero">
            <path d="M3.79306168,6.28571429 L7.30507079,27.1658685 C7.38606038,27.6473807 7.80294286,28 8.29121867,28 L21.9545586,28 C22.44674,28 22.8657424,27.6418618 22.9423659,27.1556814 L26.2315361,6.28571429 L3.79306168,6.28571429 Z M1.42857143,4.28571429 L28.5714286,4.28571429 L24.9179805,27.4670443 C24.68811,28.9255854 23.4311027,30 21.9545586,30 L8.29121867,30 C6.82639125,30 5.5757438,28.942142 5.33277504,27.4976056 L1.42857143,4.28571429 Z" id="Rectangle-24"></path>
            <path d="M10.6917294,3.11564352 C10.8511023,3.47934151 11.2105664,3.71428571 11.6076507,3.71428571 L18.4996237,3.71428571 C18.9052112,3.71428571 19.2706287,3.46930391 19.4246815,3.09411204 L19.8739211,2 L10.2028531,2 L10.6917294,3.11564352 Z M7.14285714,0 L22.8571429,0 L21.2747971,3.85376469 C20.8126387,4.97934031 19.7163861,5.71428571 18.4996237,5.71428571 L11.6076507,5.71428571 C10.4163978,5.71428571 9.33800534,5.00945311 8.85988668,3.91835912 L7.14285714,0 Z" id="Rectangle-24" transform="translate(15.000000, 2.857143) scale(1, -1) translate(-15.000000, -2.857143) "></path>
            <polygon id="Line-13" points="9.71428571 9.71428571 11.7142857 9.71428571 11.7142857 23.2317968 9.71428571 23.2317968"></polygon>
            <polygon id="Line-13-Copy" points="14 9.71428571 16 9.71428571 16 23.2317968 14 23.2317968"></polygon>
            <polygon id="Line-13-Copy-2" points="18.2857143 9.71428571 20.2857143 9.71428571 20.2857143 23.2317968 18.2857143 23.2317968"></polygon>
            <path d="M0.714285714,6 C0.162000964,6 -0.285714286,5.55228475 -0.285714286,5 C-0.285714286,4.44771525 0.162000964,4 0.714285714,4 L29.2857143,4 C29.837999,4 30.2857143,4.44771525 30.2857143,5 C30.2857143,5.55228475 29.837999,6 29.2857143,6 L0.714285714,6 Z" id="Line-12"></path>
        </g>
    </g>
</svg>