<?xml version="1.0" encoding="UTF-8"?>
<svg width="26px" height="43px" viewBox="0 0 26 43" version="1.1" xmlns="http://www.w3.org/2000/svg" xmlns:xlink="http://www.w3.org/1999/xlink">
    <!-- Generator: Sketch 51.2 (57519) - http://www.bohemiancoding.com/sketch -->
    <title>icon copy 16</title>
    <desc>Created with Sketch.</desc>
    <defs></defs>
    <g id="icon-copy-16" stroke="none" stroke-width="1" fill="none" fill-rule="evenodd">
        <g id="nature-copy-4" transform="translate(2.000000, 7.000000)" fill="#000000" fill-rule="nonzero">
            <path d="M10.6854905,1.62910906 L5.59147398,7.7417337 L7.61843455,7.7417337 C8.46366485,7.7417337 8.91216104,8.76110865 8.35067784,9.40602981 L3.58256906,14.8826928 L6.59071251,14.8826928 C7.42586794,14.8826928 7.87801834,15.8810794 7.33698215,16.5305197 L2.11904243,22.7939464 L19.7535098,22.7939464 L13.9817236,16.5701663 C13.3905812,15.9327311 13.8332633,14.8826928 14.6931398,14.8826928 L17.8095953,14.8826928 L12.7732286,9.42758446 C12.1841979,8.7895797 12.6273143,7.7417337 13.4861464,7.7417337 L15.8403541,7.7417337 L10.6854905,1.62910906 Z M5.43721679,9.7417337 L3.47197136,9.7417337 C2.63673984,9.7417337 2.18461598,8.74318889 2.72580671,8.09378075 L9.93490693,-0.556863329 C10.3245776,-1.02445322 11.0311493,-1.02656858 11.4235002,-0.56131993 L18.7187118,8.08932415 C19.265387,8.73757034 18.8142159,9.7417337 17.9762832,9.7417337 L15.7555068,9.7417337 L20.7918736,15.196842 C21.3809042,15.8348468 20.9377878,16.8826928 20.0789557,16.8826928 L16.9694791,16.8826928 L22.7412654,23.1064728 C23.3324077,23.7439081 22.8897256,24.7939464 22.0298491,24.7939464 L-6.66133815e-16,24.7939464 C-0.835155428,24.7939464 -1.28730583,23.7955597 -0.746269637,23.1461194 L4.47167008,16.8826928 L1.40135129,16.8826928 C0.556120991,16.8826928 0.107624805,15.8633178 0.669108008,15.2183967 L5.43721679,9.7417337 Z" id="Path-7"></path>
            <path d="M17.0679781,28.5098024 C17.8205351,29.0866957 17.420849,30.309433 16.4797182,30.309433 L5.79094299,30.309433 C4.87698471,30.309433 4.46090539,29.1448542 5.16027216,28.5442266 L8.14690093,25.979261 L8.14690093,23.8359769 C8.14690093,23.2836921 8.58549606,22.8359769 9.12653056,22.8359769 L12.7427742,22.8359769 C13.2838087,22.8359769 13.7224038,23.2836921 13.7224038,23.8359769 L13.7224038,25.9451605 L17.0679781,28.5098024 Z M12.1545142,27.2444066 C11.9081213,27.0555273 11.7631445,26.7593167 11.7631445,26.4447759 L11.7631445,24.8359769 L10.1061602,24.8359769 L10.1061602,26.4447759 C10.1061602,26.7399133 9.97844193,27.0199774 9.75720139,27.2099824 L8.47700842,28.309433 L13.5438408,28.309433 L12.1545142,27.2444066 Z" id="Path-8"></path>
        </g>
    </g>
</svg>