<?xml version="1.0" encoding="UTF-8"?>
<svg width="33px" height="43px" viewBox="0 0 33 43" version="1.1" xmlns="http://www.w3.org/2000/svg" xmlns:xlink="http://www.w3.org/1999/xlink">
    <!-- Generator: Sketch 51.2 (57519) - http://www.bohemiancoding.com/sketch -->
    <title>icon copy 19</title>
    <desc>Created with Sketch.</desc>
    <defs></defs>
    <g id="icon-copy-19" stroke="none" stroke-width="1" fill="none" fill-rule="evenodd">
        <g id="wrench-copy-3" transform="translate(2.000000, 8.000000)" fill="#000000">
            <path d="M16.442044,17.7663888 C16.8476049,17.3869509 17.4872344,17.4046775 17.8706966,17.8059821 C18.2541587,18.2072868 18.2362441,18.8402035 17.8306833,19.2196413 L6.52333103,29.7986618 C4.7420517,31.465205 1.93325397,31.3892798 0.246581263,29.6289938 C-1.44419009,27.8644302 -1.42684751,25.0941585 0.285886439,23.3504569 L11.0944089,12.3465069 C11.4834181,11.9504641 12.1232337,11.9414526 12.5234769,12.3263793 C12.9237202,12.7113059 12.9328273,13.3444068 12.543818,13.7404496 L1.73529558,24.7443996 C0.778198079,25.7188022 0.768506826,27.2668652 1.71333134,28.2529258 C2.63271088,29.2124308 4.16374361,29.2538165 5.13469177,28.3454092 L16.442044,17.7663888 Z" id="Path-15" fill-rule="nonzero"></path>
            <path d="M21.313819,13.4358214 C20.630055,13.4494162 19.9857192,13.1199499 19.6013705,12.5601982 L18.0315148,10.2738973 C17.5640448,9.59309049 17.5658233,8.69841755 18.0359964,8.01943579 L19.5866772,5.78008235 C19.9635205,5.23587923 20.5873325,4.91056274 21.2540284,4.91056274 L27.5483231,4.91056274 C26.5371013,2.78476739 24.7385256,1.53496603 22.4392494,1.13232621 C20.1414861,0.729951326 17.6056019,1.29177228 16.3307905,2.37327539 C13.3035616,4.59271946 12.2231519,8.65478557 13.2247985,12.1176555 C14.1523426,14.3400537 15.8940037,16.4759139 17.9739061,17.0331985 C22.4317987,17.8920775 26.3210179,16.2018647 27.6314848,13.40365 C26.0751561,13.3724616 23.9676763,13.3830567 21.313819,13.4358214 Z M29.9919039,12.6388381 C29.0762541,17.2827483 23.6432686,20.1630437 17.5177641,18.9803104 C14.5860891,18.1984519 12.4712881,15.587648 11.3332829,12.8247707 L11.2991361,12.727933 C10.0493837,8.4976644 11.3562684,3.53123172 15.0701396,0.811653287 C16.7765068,-0.640625161 19.9271889,-1.33865357 22.7914765,-0.837071274 C26.250775,-0.231293114 28.9096731,1.962289 29.9716299,5.63552308 C30.1563368,6.27441132 29.6715646,6.91056274 29,6.91056274 L21.2540284,6.91056274 L19.7033498,9.14991939 L21.2732147,11.436225 C24.815255,11.3658012 27.4035105,11.3696039 29.0489255,11.4485184 C29.6641655,11.4780254 30.1098559,12.0406196 29.9919039,12.6388381 Z" id="Path-16" fill-rule="nonzero"></path>
            <ellipse id="Oval-4" cx="3.95454545" cy="26.0869565" rx="1.31818182" ry="1.30434783"></ellipse>
        </g>
    </g>
</svg>